<?xml version="1.0" encoding="iso-8859-1"?>
<svg enable-background="new 0 0 512 512" viewBox="0 0 512 512" xmlns="http://www.w3.org/2000/svg">
<path fill="#4eb450" d="m339.392 258.624 172.608 109.12v-222.848z"/>
<path fill="#4eb450" d="m0 144.896v222.848l172.608-109.12z"/>
<path fill="#4eb450" d="m480 80h-448c-15.968 0-28.64 11.904-31.04 27.232l255.04 168.032 255.04-168.032c-2.4-15.328-15.072-27.232-31.04-27.232z"/>
<path fill="#4eb450" d="m310.08 277.952-45.28 29.824c-2.688 1.76-5.728 2.624-8.8 2.624s-6.112-.864-8.8-2.624l-45.28-29.856-200.896 127.072c2.464 15.2 15.072 27.008 30.976 27.008h448c15.904 0 28.512-11.808 30.976-27.008z"/>
</svg>