<?xml version="1.0" encoding="utf-8"?>
<!-- Generator: Adobe Illustrator 16.0.0, SVG Export Plug-In . SVG Version: 6.00 Build 0)  -->
<!DOCTYPE svg PUBLIC "-//W3C//DTD SVG 1.1//EN" "http://www.w3.org/Graphics/SVG/1.1/DTD/svg11.dtd">
<svg version="1.1" id="Layer_1" xmlns="http://www.w3.org/2000/svg" xmlns:xlink="http://www.w3.org/1999/xlink" x="0px" y="0px"
	 width="960px" height="560px" viewBox="0 0 960 560" enable-background="new 0 0 960 560" xml:space="preserve">
<g>
	<path fill="#faf8f0" d="M563.453,148.987H396.547c-26.641,0-48.315,21.674-48.315,48.315v166.906c0,26.641,21.674,48.321,48.315,48.321h166.906
		c26.641,0,48.32-21.675,48.32-48.321V197.302C611.773,170.662,590.1,148.987,563.453,148.987z M480,367.515
		c-47.834,0-86.753-38.919-86.753-86.76c0-47.834,38.919-86.753,86.753-86.753c47.841,0,86.76,38.919,86.76,86.753
		C566.76,328.589,527.834,367.515,480,367.515z M569.549,211.939c-11.324,0-20.533-9.209-20.533-20.526
		c0-11.318,9.209-20.526,20.533-20.526c11.317,0,20.525,9.208,20.525,20.526C590.074,202.73,580.866,211.939,569.549,211.939z"/>
	<path fill="#faf8f0" d="M480,230.662c-27.614,0-50.1,22.473-50.1,50.086c0,27.627,22.485,50.106,50.1,50.106c27.626,0,50.093-22.479,50.093-50.106
		C530.093,253.141,507.62,230.662,480,230.662z"/>
	<path fill="#faf8f0" d="M480,0C325.366,0,200,125.366,200,280s125.366,280,280,280s280-125.366,280-280S634.634,0,480,0z M648.428,364.208
		c0,46.861-38.113,84.975-84.975,84.975H396.547c-46.855,0-84.976-38.113-84.976-84.975V197.302
		c0-46.855,38.121-84.975,84.975-84.975h166.906c46.861,0,84.975,38.12,84.975,84.975V364.208z"/>
</g>
</svg>
